<svg width="203" height="160" viewBox="0 0 203 160" fill="none" xmlns="http://www.w3.org/2000/svg">
<g clip-path="url(#clip0_45_11066)">
<path d="M54.546 86.4393H46.5561V105.384H43.8802V86.4393H40.4513C40.3297 90.1639 38.9998 93.748 36.6624 96.6504C34.3861 99.623 31.2891 101.864 27.7537 103.096L26.8823 100.605C29.9053 99.5591 32.5539 97.6468 34.498 95.1064C36.4821 92.6351 37.6415 89.6039 37.8132 86.4393H27.4695V83.8297H43.8802V76.375H46.5561V83.8297H54.546V86.4393Z" fill="white"/>
<path d="M84.8714 87.6804C82.598 92.8807 79.3443 96.9127 75.1102 99.7765C70.8903 102.618 65.9553 104.039 60.3004 104.039V101.249C70.5872 101.249 78.3545 96.0113 82.4228 86.5106L84.8714 87.6804ZM72.8132 82.7075H60.4519V80.041H72.8132V82.7075Z" fill="white"/>
<path d="M115.273 87.2687C114.894 90.3525 113.862 93.3201 112.246 95.9737C109.12 100.985 104.294 104.115 97.8153 105.446L97.2849 102.846C100.689 102.21 103.871 100.704 106.52 98.4744C109.16 96.214 111.074 93.2256 112.024 89.883H90.9337V87.2829L115.273 87.2687ZM113.501 81.0501H93.4155V78.4121H113.501V81.0501Z" fill="white"/>
<path d="M146.792 77.4693C145.285 81.8029 142.269 85.5208 137.793 88.5472L137.755 105.886H135.041V90.129C130.778 92.5098 126.044 93.926 121.174 94.2779L120.984 91.602C125.87 91.2372 130.597 89.7091 134.771 87.1453C139.555 84.2799 142.685 80.7373 144.154 76.4795L146.792 77.4693Z" fill="white"/>
<path d="M177.695 87.6804C175.425 92.8807 172.171 96.9127 167.934 99.7765C163.714 102.618 158.774 104.039 153.124 104.039V101.249C163.411 101.249 171.173 96.0113 175.246 86.5106L177.695 87.6804ZM165.637 82.7075H153.275V80.041H165.637V82.7075Z" fill="white"/>
<path d="M16.5765 137.637L14.3931 139.058L11.452 134.577V151.836H8.76184V134.435C7.40731 137.864 6.12382 140.73 4.92084 143.065L2.61908 141.895C4.77996 137.49 6.67774 132.96 8.30244 128.33H2.8843V125.764H8.72395V118.001H11.4378V125.764H16.1739V128.349H11.4378V131.665L12.1908 131.191L16.5765 137.637ZM35.3694 151.556H32.5277V149.188H20.6353V151.556H17.8457V119.55H35.3694V151.556ZM32.5277 128.454V122.221H20.6353V128.439L32.5277 128.454ZM32.5277 137.201V131.006H20.6353V137.187L32.5277 137.201ZM32.5277 146.674V139.749H20.6353V146.683L32.5277 146.674Z" fill="white"/>
<path d="M52.5379 126.635H38.9736V124.087H52.5379V126.635ZM51.4486 150.491H42.7767V151.997H40.0629V139.143H51.4297L51.4486 150.491ZM51.4818 121.6H40.4418V119.019H51.4818V121.6ZM51.297 136.562H40.4418V134.075H51.297V136.562ZM51.3728 131.589H40.5176V129.102H51.3728V131.589ZM48.7348 147.943V141.71H42.7767V147.924L48.7348 147.943ZM72.477 152.016C67.8403 150.472 64.6387 147.682 62.8674 143.723C61.0203 147.985 57.814 150.77 53.182 152.129L52.4621 149.662C58.496 147.886 61.5839 142.686 61.5839 136.619C61.5828 135.927 61.5449 135.236 61.4702 134.549H64.3119C64.4635 135.866 64.2362 139.143 64.1604 140.123C65.406 144.76 68.8965 147.962 73.3579 149.473L72.477 152.016ZM72.0981 135.283C67.613 133.663 64.6387 130.987 63.1279 127.293C62.3097 129.175 61.1053 130.865 59.5926 132.252C58.08 133.639 56.2929 134.692 54.3471 135.345L53.4804 132.929C59.3248 130.82 62.1886 125.959 62.0717 118.347H64.7524C64.745 120.089 64.6311 121.828 64.4114 123.556C65.4675 128.042 68.6739 131.243 73.0027 132.825L72.0981 135.283ZM57.8897 142.52L55.3654 142.78L54.8918 137.883L57.3782 137.618L57.8897 142.52ZM58.6428 121.207L57.7382 126.82L55.2517 126.408L56.1563 120.772L58.6428 121.207ZM72.5528 138.39L67.8403 142.558L66.1448 140.663L70.8809 136.477L72.5528 138.39ZM72.9269 122.334L68.6313 125.763L67.0494 123.77L71.3451 120.341L72.9269 122.334Z" fill="white"/>
<path d="M105.308 131.836H98.8241C98.6346 136.505 97.73 140.162 96.1482 142.838C94.3769 145.779 91.412 148.076 87.2537 149.695L86.2355 147.294C89.8539 145.902 92.3924 143.903 93.9269 141.379C95.2436 139.153 95.9587 135.951 96.1103 131.845H85.4066V139.494H82.7686V131.836H76.0623V129.198H82.7686V121.847H85.4066V129.198H96.1861V121.354H98.8999C98.9377 124.637 98.9377 127.237 98.8999 129.198H105.308V131.836Z" fill="white"/>
<path d="M135.093 137.258H109.277V134.587H135.093V137.258Z" fill="white"/>
<path d="M165.158 147.626H149.254C145.295 147.626 142.733 144.95 142.733 140.915V122.524H145.399V131.945C152.148 131.305 158.026 129.761 163.037 127.275L164.244 129.685C161.314 131.135 158.228 132.247 155.047 133.001C151.882 133.816 148.655 134.371 145.399 134.658V140.915C145.399 143.591 146.683 144.95 149.245 144.95H165.149L165.158 147.626ZM162.52 124.892H159.844V121.956H162.52V124.892ZM167.607 124.892H164.931V121.956H167.607V124.892Z" fill="white"/>
<path d="M198.529 146.645L196.682 148.644L186.807 139.242C183.164 143.4 178.611 146.662 173.503 148.776L172.395 146.304C176.676 144.505 180.544 141.85 183.762 138.503C187.022 135.198 189.427 131.149 190.771 126.706H173.769V123.954L194.233 123.992C193.417 128.752 191.478 133.249 188.579 137.111L198.529 146.645Z" fill="white"/>
<path d="M80.7463 12.6602H72.0887V11.5282H79.5954V4.85503H72.0697V3.7373H80.7463V12.6602Z" fill="white"/>
<path d="M93.2165 12.6602H84.5588V11.5282H92.0703V4.85503H84.5446V3.7373H93.2165V12.6602Z" fill="white"/>
<path d="M107.117 8.02335H102.973C102.912 9.3723 102.452 10.6728 101.652 11.7602C100.852 12.8465 99.7195 13.6415 98.4262 14.024L98.071 12.9726C99.1449 12.6529 100.09 12.0013 100.771 11.1113C101.424 10.2081 101.806 9.13651 101.869 8.02335H96.5034V6.95299H107.117V8.02335ZM106.089 4.51388H97.4932V3.42931H106.089V4.51388ZM106.089 2.54365H104.986V1.33594H106.089V2.54365ZM108.168 2.54365H107.065V1.33594H108.168V2.54365Z" fill="white"/>
<path d="M120.014 12.6315L119.251 13.4508L115.187 9.57195C113.686 11.2831 111.811 12.6264 109.708 13.4982L109.234 12.4894C110.998 11.7493 112.592 10.6566 113.918 9.27831C115.262 7.91927 116.253 6.2529 116.807 4.42378H109.817V3.28711H118.242C117.905 5.24556 117.108 7.09604 115.917 8.6863L120.014 12.6315Z" fill="white"/>
<path d="M131.982 2.8418C132.001 5.35298 131.227 7.80621 129.77 9.85127C128.278 11.8787 126.05 13.2394 123.566 13.6402L123.367 12.5556C124.782 12.3441 126.118 11.772 127.248 10.8945C128.378 10.0169 129.262 8.86332 129.817 7.54477C130.335 6.41419 130.67 5.20901 130.812 3.97373H125.825C125.129 5.72578 124.059 7.30488 122.689 8.60093L121.946 7.79105C123.36 6.40974 124.428 4.71395 125.062 2.8418H131.982Z" fill="white"/>
<path d="M129.325 28.1374C126.928 25.9161 124.025 24.7084 120.885 23.9743C116.106 22.8613 111.247 23.4107 106.373 23.2402V57.814C109.405 57.814 112.374 57.885 115.334 57.814C118.232 57.7509 121.097 57.1935 123.807 56.1658C128.572 54.3187 131.944 51.1313 133.398 46.13C134.076 43.665 134.29 41.0953 134.028 38.5521C133.668 34.498 132.342 30.9317 129.325 28.1374ZM128.719 46.2105C127.298 49.9994 124.361 52.1117 120.591 53.2199C117.366 54.1672 114.06 54.2193 110.683 54.134V27.0339C110.75 26.9913 110.783 26.9439 110.821 26.9439C114.311 26.8492 117.792 26.8871 121.179 27.9385C126.099 29.4635 128.993 33.0109 129.514 38.1543C129.794 40.9013 129.713 43.6056 128.719 46.2105Z" fill="white"/>
<path d="M189.398 43.6485L201.802 32.5848H196.265L185.419 43.0706V20.4414H181.365V57.7811H185.443V44.8041L197.402 57.7811H203L189.398 43.6485Z" fill="white"/>
<path d="M16.1549 54.1534C12.6644 53.6798 9.65223 52.1927 7.47361 49.3652C4.38565 45.3679 3.841 40.8402 5.16711 36.1041C7.01894 29.5114 13.0007 25.8645 20.4506 26.7644C22.1414 26.9681 23.7659 27.5174 25.5135 27.9248L25.9208 24.1927C25.8299 24.1311 25.735 24.0758 25.6367 24.0269C25.4851 23.9653 25.3288 23.9085 25.1631 23.8612C21.3847 22.6709 17.3534 22.5334 13.5027 23.4633C7.62516 24.8321 3.37212 28.2515 1.16508 33.9633C-0.0847636 37.3392 -0.344383 41.0018 0.416776 44.5202C1.42084 49.8436 4.32408 53.803 9.25439 56.19C12.9912 57.9992 16.979 58.3875 21.0474 58.0844C22.7097 57.9518 24.3626 57.5493 26.0582 57.2556C25.935 55.7069 25.8308 54.4139 25.7172 53.0357C22.6933 54.2808 19.3845 54.6676 16.1549 54.1534Z" fill="white"/>
<path d="M89.887 32.0686C84.4831 31.7512 79.9127 34.3987 77.7341 39.1728C76.5514 41.8083 76.1725 44.7342 76.6448 47.5841C77.251 51.6904 79.2212 54.9346 82.9533 56.9285C85.6061 58.3141 88.6555 58.7423 91.5873 58.141C94.5777 57.6793 97.2625 56.049 99.0514 53.6085C100.875 51.1552 101.576 48.3467 101.628 45.3297C101.552 44.5293 101.5 43.7242 101.405 42.9238C100.671 36.7479 96.0866 32.4333 89.887 32.0686ZM95.2814 51.9603C91.9662 56.3886 84.8146 55.9671 82.2003 51.0794C80.14 47.2242 80.2348 43.2174 82.2523 39.3622C83.64 36.7052 86.0413 35.3839 89.0155 35.4123C90.465 35.3805 91.8932 35.7652 93.1306 36.5207C94.368 37.2763 95.3627 38.3709 95.9966 39.6748C96.8756 41.4237 97.3207 43.3584 97.2943 45.3155C97.2327 47.6883 96.7686 49.9759 95.2814 51.9603Z" fill="white"/>
<path d="M41.2943 32.0689C37.2733 31.8984 33.7544 33.1535 31.0785 36.2604C28.8904 38.8368 28.0237 41.9295 28.0189 46.3247C28.0443 48.0216 28.4234 49.6947 29.1321 51.2368C29.8408 52.7789 30.8634 54.1562 32.1346 55.2807C34.9479 57.805 38.3247 58.6481 42.0331 58.2787C46.0446 57.8714 49.1894 56.0432 51.2638 52.5479C53.0115 49.6163 53.3383 46.391 52.9689 43.0757C52.2632 36.8193 47.5744 32.3341 41.2943 32.0689ZM47.5507 50.7387C46.0636 53.7651 43.435 55.1575 40.1055 55.0013C36.5961 54.8165 34.1996 52.9316 33.0487 49.6305C32.7003 48.4517 32.4407 47.2486 32.272 46.031C32.3809 42.7157 32.8687 40.2672 34.5548 38.2069C35.3765 37.2167 36.4312 36.4459 37.6242 35.9635C38.8171 35.4812 40.1112 35.3024 41.3902 35.4432C42.6693 35.584 43.8934 36.04 44.9529 36.7703C46.0124 37.5007 46.8741 38.4825 47.4607 39.6278C48.3836 41.3311 48.8743 43.2349 48.89 45.172C48.9057 47.1092 48.4458 49.0207 47.5507 50.7387Z" fill="white"/>
<path d="M149.543 32.0735C144.13 31.7325 139.668 34.5741 137.944 39.5281C136.702 43.0473 136.667 46.88 137.845 50.4212C139.1 54.3428 141.79 56.7961 145.764 57.8522C148.098 58.4217 150.519 58.5375 152.896 58.1932C154.488 58.0369 156.042 57.6109 157.49 56.9334V53.2298C155.342 54.3585 152.95 54.9455 150.524 54.9395C148.103 54.9774 145.844 54.4659 143.988 52.8225C142.008 51.0559 141.279 48.7446 141.208 46.0593H159.205C159.233 45.6662 159.257 45.363 159.271 45.0552C159.395 43.0177 159.171 40.974 158.608 39.0119C157.282 34.6452 154.284 32.3624 149.543 32.0735ZM141.388 42.8955C141.411 39.3766 143.609 35.9713 147.227 35.3509C149.269 35.0004 151.225 35.1993 152.882 36.5633C154.852 38.1831 155.25 40.4422 155.302 42.8955H141.388Z" fill="white"/>
<path d="M174.981 45.552C173.784 44.7925 172.542 44.1045 171.263 43.4918C170.008 42.8335 168.639 42.3457 167.474 41.5405C165.338 40.0487 165.67 37.0791 168 35.8903C169.347 35.2689 170.86 35.1026 172.31 35.4167C173.574 35.6251 174.801 36.0372 176.099 36.364C176.203 35.3078 176.312 34.2043 176.44 32.935C175.175 32.665 173.949 32.3146 172.694 32.1535C170.415 31.8599 168.142 31.9404 166.011 32.9539C164.933 33.416 164.001 34.1642 163.317 35.1175C162.634 36.0709 162.224 37.193 162.132 38.3626C161.838 41.0669 162.814 43.1982 165.168 44.6143C166.115 45.1874 167.129 45.661 168.114 46.182C169.326 46.8213 170.567 47.4228 171.746 48.119C172.164 48.3481 172.528 48.6654 172.811 49.049C173.094 49.4326 173.29 49.8732 173.385 50.3403C173.792 52.3768 172.731 54.0818 170.605 54.7259C168.597 55.3322 166.612 55.048 164.666 54.4039C163.719 54.1008 162.838 53.684 161.857 53.2862V57.0277C164.033 57.931 166.369 58.3884 168.725 58.3728C170.556 58.3895 172.365 57.9689 174.001 57.1461C178.268 54.9391 178.955 48.3085 174.981 45.552Z" fill="white"/>
<path d="M62.5169 51.5865C59.9262 48.6217 59.5852 43.2177 61.7875 39.8172C64.8944 35.0195 69.3985 35.2374 74.1725 36.7103C74.2719 35.531 74.3714 34.3422 74.4756 33.144C74.1251 33.0256 73.822 32.9024 73.5047 32.8172C71.3019 32.2118 68.9977 32.0683 66.7368 32.3957C62.9905 32.9356 59.9499 34.6738 57.9891 37.9701C55.6211 41.9248 55.4837 46.1399 56.9424 50.4261C57.3951 51.7825 58.1149 53.0345 59.0593 54.1083C60.0037 55.182 61.1536 56.0557 62.4411 56.6778C64.9558 57.8944 67.7647 58.3707 70.5399 58.0513C72.0122 57.959 73.456 57.6029 74.8024 56.9999C74.7029 55.7922 74.6129 54.6318 74.5135 53.3957C70.0947 55.1291 65.9079 55.4796 62.5169 51.5865Z" fill="white"/>
</g>
<defs>
<clipPath id="clip0_45_11066">
<rect width="203" height="159.271" fill="white"/>
</clipPath>
</defs>
</svg>
