<svg width="386" height="303" viewBox="0 0 386 303" fill="none" xmlns="http://www.w3.org/2000/svg">
<g clip-path="url(#clip0_18_9849)">
<path d="M104.193 164.058H89.029V200.014H83.9502V164.058H77.4422C77.2114 171.127 74.6873 177.929 70.251 183.438C65.9308 189.08 60.0527 193.333 53.3428 195.672L51.6888 190.944C57.4265 188.958 62.4533 185.329 66.143 180.507C69.9088 175.817 72.1094 170.064 72.4353 164.058H52.8034V159.105H83.9502V144.956H89.029V159.105H104.193V164.058Z" fill="#00859B"/>
<path d="M161.75 166.413C157.435 176.283 151.259 183.935 143.223 189.371C135.214 194.764 125.848 197.461 115.115 197.461V192.166C134.639 192.166 149.381 182.224 157.102 164.192L161.75 166.413ZM138.864 156.974H115.402V151.914H138.864V156.974Z" fill="#00859B"/>
<path d="M219.45 165.631C218.732 171.484 216.773 177.116 213.706 182.152C207.773 191.663 198.613 197.604 186.317 200.13L185.31 195.195C191.771 193.989 197.809 191.13 202.838 186.899C207.848 182.609 211.481 176.937 213.283 170.593H173.256V165.658L219.45 165.631ZM216.088 153.828H177.966V148.821H216.088V153.828Z" fill="#00859B"/>
<path d="M279.271 147.033C276.413 155.257 270.687 162.314 262.192 168.058L262.121 200.966H256.97V171.06C248.878 175.579 239.894 178.267 230.65 178.934L230.291 173.856C239.563 173.163 248.535 170.263 256.457 165.397C265.536 159.959 271.478 153.235 274.265 145.154L279.271 147.033Z" fill="#00859B"/>
<path d="M337.925 166.413C333.616 176.283 327.44 183.935 319.398 189.371C311.389 194.764 302.014 197.461 291.29 197.461V192.166C310.814 192.166 325.547 182.224 333.277 164.192L337.925 166.413ZM315.039 156.974H291.577V151.914H315.039V156.974Z" fill="#00859B"/>
<path d="M32.1288 261.228L27.9849 263.925L22.4027 255.422V288.177H17.297V255.152C14.7262 261.66 12.2901 267.098 10.0069 271.53L5.63831 269.309C9.73956 260.949 13.3415 252.352 16.4251 243.565H6.14169V238.693H17.2251V223.96H22.3758V238.693H31.3647V243.601H22.3758V249.893L23.805 248.994L32.1288 261.228ZM67.797 287.647H62.4036V283.152H39.8323V287.647H34.5378V226.9H67.797V287.647ZM62.4036 243.799V231.969H39.8323V243.772L62.4036 243.799ZM62.4036 260.401V248.644H39.8323V260.374L62.4036 260.401ZM62.4036 278.379V265.237H39.8323V278.397L62.4036 278.379Z" fill="#00859B"/>
<path d="M100.382 240.347H74.6376V235.511H100.382V240.347ZM98.3146 285.624H81.8558V288.483H76.7051V264.087H98.2786L98.3146 285.624ZM98.3775 230.792H77.4242V225.893H98.3775V230.792ZM98.0269 259.188H77.4242V254.469H98.0269V259.188ZM98.1708 249.749H77.568V245.03H98.1708V249.749ZM93.1639 280.788V268.959H81.8558V280.752L93.1639 280.788ZM138.226 288.519C129.425 285.588 123.349 280.294 119.987 272.779C116.481 280.869 110.396 286.155 101.605 288.735L100.238 284.051C111.69 280.681 117.551 270.811 117.551 259.296C117.549 257.983 117.477 256.672 117.335 255.368H122.729C123.016 257.867 122.585 264.087 122.441 265.948C124.805 274.748 131.43 280.824 139.898 283.692L138.226 288.519ZM137.506 256.761C128.994 253.687 123.349 248.608 120.481 241.596C118.928 245.169 116.643 248.375 113.772 251.007C110.901 253.64 107.509 255.64 103.816 256.878L102.171 252.293C113.263 248.29 118.699 239.065 118.477 224.616H123.565C123.551 227.922 123.334 231.225 122.917 234.504C124.922 243.017 131.007 249.093 139.223 252.096L137.506 256.761ZM110.54 270.496L105.748 270.99L104.85 261.696L109.569 261.192L110.54 270.496ZM111.969 230.046L110.252 240.698L105.533 239.916L107.25 229.219L111.969 230.046ZM138.369 262.658L129.425 270.568L126.207 266.972L135.196 259.026L138.369 262.658ZM139.08 232.185L130.927 238.693L127.924 234.909L136.077 228.401L139.08 232.185Z" fill="#00859B"/>
<path d="M200.537 250.217H188.231C187.872 259.08 186.155 266.019 183.152 271.098C179.791 276.68 174.163 281.04 166.271 284.114L164.339 279.557C171.206 276.914 176.024 273.121 178.937 268.33C181.436 264.105 182.793 258.028 183.081 250.235H162.765V264.752H157.759V250.217H145.03V245.21H157.759V231.259H162.765V245.21H183.224V230.324H188.375C188.447 236.554 188.447 241.489 188.375 245.21H200.537V250.217Z" fill="#00859B"/>
<path d="M257.069 260.509H208.07V255.44H257.069V260.509Z" fill="#00859B"/>
<path d="M314.131 280.186H283.946C276.431 280.186 271.568 275.107 271.568 267.449V232.545H276.629V250.424C289.438 249.21 300.593 246.28 310.104 241.561L312.396 246.136C306.834 248.887 300.978 250.998 294.939 252.428C288.932 253.976 282.808 255.028 276.629 255.574V267.449C276.629 272.528 279.065 275.107 283.928 275.107H314.113L314.131 280.186ZM309.124 237.039H304.045V231.466H309.124V237.039ZM318.778 237.039H313.699V231.466H318.778V237.039Z" fill="#00859B"/>
<path d="M377.467 278.325L373.961 282.119L355.219 264.276C348.304 272.166 339.664 278.358 329.969 282.37L327.866 277.678C335.99 274.263 343.331 269.226 349.439 262.873C355.626 256.6 360.192 248.915 362.743 240.482H330.473V235.259L369.314 235.331C367.764 244.365 364.085 252.9 358.581 260.231L377.467 278.325Z" fill="#00859B"/>
<path d="M153.92 24.0275H137.488V21.8791H151.736V9.21368H137.453V7.09229H153.92V24.0275Z" fill="#00859B"/>
<path d="M177.588 24.0275H161.156V21.8791H175.413V9.21368H161.129V7.09229H177.588V24.0275Z" fill="#00859B"/>
<path d="M203.971 15.2273H196.106C195.99 17.7875 195.117 20.2559 193.598 22.3196C192.081 24.3814 189.931 25.8903 187.476 26.6163L186.802 24.6208C188.84 24.0139 190.634 22.7772 191.926 21.0881C193.167 19.3739 193.89 17.34 194.011 15.2273H183.827V13.1958H203.971V15.2273ZM202.02 8.56648H185.705V6.50801H202.02V8.56648ZM202.02 4.82707H199.926V2.53488H202.02V4.82707ZM205.966 4.82707H203.872V2.53488H205.966V4.82707Z" fill="#00859B"/>
<path d="M228.448 23.9736L227.001 25.5287L219.288 18.1667C216.438 21.4145 212.88 23.964 208.888 25.6186L207.989 23.7039C211.337 22.2993 214.362 20.2254 216.879 17.6094C219.429 15.03 221.311 11.8673 222.362 8.39569H209.095V6.23834H225.086C224.447 9.95539 222.934 13.4675 220.672 16.4858L228.448 23.9736Z" fill="#00859B"/>
<path d="M251.163 5.39337C251.201 10.1595 249.731 14.8156 246.965 18.697C244.134 22.5451 239.906 25.1275 235.19 25.8882L234.812 23.8297C237.497 23.4283 240.034 22.3426 242.178 20.677C244.322 19.0114 246.002 16.822 247.055 14.3194C248.037 12.1736 248.674 9.88623 248.943 7.54173H239.477C238.156 10.867 236.125 13.8641 233.527 16.324L232.115 14.7868C234.799 12.1652 236.826 8.94663 238.03 5.39337H251.163Z" fill="#00859B"/>
<path d="M246.12 53.4034C241.572 49.1876 236.062 46.8954 230.102 45.5021C221.032 43.3897 211.809 44.4325 202.56 44.1089V109.728C208.313 109.728 213.949 109.863 219.567 109.728C225.066 109.609 230.505 108.551 235.648 106.6C244.691 103.094 251.091 97.0449 253.851 87.5525C255.139 82.8742 255.544 77.9969 255.046 73.1702C254.363 65.4756 251.846 58.7069 246.12 53.4034ZM244.97 87.7053C242.273 94.8965 236.7 98.9056 229.544 101.009C223.423 102.807 217.149 102.906 210.74 102.744V51.309C210.865 51.2281 210.928 51.1382 211 51.1382C217.625 50.9584 224.232 51.0304 230.659 53.0259C239.999 55.9204 245.491 62.6531 246.48 72.4151C247.01 77.6287 246.857 82.7614 244.97 87.7053Z" fill="#00859B"/>
<path d="M360.136 82.8423L383.678 61.8441H373.17L352.585 81.7457V38.7964H344.891V109.665H352.63V85.0356L375.328 109.665H385.953L360.136 82.8423Z" fill="#00859B"/>
<path d="M31.3288 102.78C24.7039 101.881 18.9869 99.0584 14.852 93.692C8.99119 86.1053 7.95746 77.5119 10.4744 68.5229C13.9891 56.0103 25.3421 49.0888 39.4818 50.7967C42.6908 51.1832 45.774 52.2259 49.091 52.999L49.864 45.9157C49.6915 45.7989 49.5113 45.6937 49.3247 45.601C49.037 45.4842 48.7404 45.3763 48.4258 45.2864C41.2547 43.0274 33.6034 42.7663 26.295 44.5313C15.1396 47.1292 7.06755 53.6192 2.8787 64.4599C0.506539 70.8671 0.0137929 77.8186 1.45844 84.4963C3.3641 94.5999 8.87434 102.115 18.2319 106.645C25.3241 110.079 32.8929 110.816 40.6144 110.241C43.7695 109.989 46.9067 109.225 50.1247 108.668C49.891 105.728 49.6932 103.274 49.4775 100.658C43.7383 103.022 37.4583 103.756 31.3288 102.78Z" fill="#00859B"/>
<path d="M171.269 60.8643C161.013 60.262 152.338 65.2869 148.203 74.3477C145.959 79.3499 145.239 84.9032 146.136 90.3122C147.286 98.1056 151.026 104.263 158.109 108.047C163.144 110.677 168.932 111.49 174.496 110.349C180.172 109.472 185.267 106.378 188.663 101.746C192.123 97.0898 193.454 91.7594 193.553 86.0334C193.409 84.5143 193.31 82.9861 193.13 81.467C191.737 69.7454 183.036 61.5564 171.269 60.8643ZM181.507 98.618C175.215 107.023 161.642 106.223 156.68 96.946C152.77 89.629 152.949 82.0243 156.779 74.7073C159.413 69.6645 163.97 67.1566 169.615 67.2105C172.366 67.1502 175.077 67.8804 177.425 69.3143C179.774 70.7483 181.662 72.8259 182.865 75.3006C184.533 78.6198 185.378 82.2919 185.328 86.0064C185.211 90.5099 184.33 94.8516 181.507 98.618Z" fill="#00859B"/>
<path d="M79.0422 60.8643C71.4106 60.5407 64.7318 62.9228 59.653 68.8195C55.5001 73.7095 53.8551 79.5793 53.8461 87.9211C53.8943 91.1419 54.6138 94.3172 55.9589 97.2441C57.3039 100.171 59.2448 102.785 61.6575 104.919C66.997 109.71 73.4061 111.31 80.4445 110.609C88.0581 109.836 94.0268 106.366 97.964 99.7326C101.281 94.1684 101.901 88.0469 101.2 81.7547C99.8607 69.8802 90.9616 61.3677 79.0422 60.8643ZM90.9166 96.2988C88.0941 102.043 83.1052 104.686 76.786 104.389C70.1252 104.038 65.5767 100.461 63.3924 94.1954C62.7312 91.9582 62.2385 89.6746 61.9182 87.3638C62.125 81.0715 63.0508 76.4242 66.2509 72.514C67.8106 70.6346 69.8122 69.1715 72.0765 68.2561C74.3407 67.3406 76.7967 67.0013 79.2243 67.2685C81.6519 67.5358 83.9753 68.4013 85.9861 69.7874C87.997 71.1735 89.6324 73.037 90.7458 75.2107C92.4973 78.4435 93.4288 82.0568 93.4585 85.7335C93.4883 89.4102 92.6155 93.038 90.9166 96.2988Z" fill="#00859B"/>
<path d="M284.494 60.8733C274.22 60.2261 265.752 65.6195 262.48 75.0219C260.122 81.7012 260.056 88.9753 262.291 95.6965C264.673 103.139 269.779 107.796 277.321 109.8C281.75 110.881 286.346 111.101 290.858 110.447C293.879 110.151 296.828 109.342 299.578 108.056V101.027C295.5 103.169 290.961 104.283 286.355 104.272C281.761 104.344 277.474 103.373 273.95 100.254C270.193 96.9011 268.808 92.5144 268.673 87.4177H302.832C302.885 86.6716 302.93 86.0963 302.957 85.512C303.193 81.645 302.767 77.7661 301.699 74.0421C299.182 65.7543 293.492 61.4216 284.494 60.8733ZM269.015 81.4131C269.06 74.7343 273.231 68.2712 280.098 67.0936C283.973 66.4285 287.685 66.806 290.831 69.3948C294.571 72.469 295.326 76.7568 295.425 81.4131H269.015Z" fill="#00859B"/>
<path d="M332.774 86.4559C330.501 85.0143 328.145 83.7086 325.717 82.5457C323.335 81.2962 320.738 80.3704 318.526 78.8422C314.472 76.0107 315.102 70.3746 319.524 68.1184C322.081 66.9388 324.952 66.6233 327.704 67.2195C330.104 67.615 332.432 68.397 334.895 69.0173C335.093 67.0127 335.3 64.9183 335.542 62.5093C333.142 61.9969 330.814 61.3317 328.432 61.0261C324.108 60.4688 319.794 60.6216 315.749 62.5452C313.702 63.4222 311.934 64.8422 310.637 66.6516C309.339 68.461 308.561 70.5908 308.387 72.8106C307.829 77.9433 309.681 81.9884 314.149 84.6761C315.946 85.7637 317.87 86.6626 319.74 87.6514C322.041 88.8649 324.396 90.0065 326.634 91.3279C327.428 91.7626 328.117 92.3649 328.654 93.093C329.191 93.821 329.563 94.6573 329.745 95.5437C330.518 99.409 328.504 102.645 324.468 103.868C320.657 105.018 316.89 104.479 313.196 103.256C311.398 102.681 309.726 101.89 307.865 101.135V108.236C311.996 109.951 316.428 110.819 320.899 110.789C324.375 110.821 327.808 110.023 330.913 108.461C339.012 104.272 340.316 91.6875 332.774 86.4559Z" fill="#00859B"/>
<path d="M119.322 97.9078C114.405 92.2807 113.758 82.0243 117.937 75.5702C123.834 66.4644 132.383 66.8779 141.444 69.6735C141.632 67.4352 141.821 65.179 142.019 62.9048C141.354 62.6801 140.778 62.4464 140.176 62.2846C135.995 61.1356 131.622 60.8632 127.331 61.4845C120.221 62.5093 114.45 65.8082 110.728 72.0646C106.234 79.5703 105.973 87.5705 108.742 95.7055C109.601 98.2799 110.967 100.656 112.759 102.694C114.552 104.732 116.734 106.39 119.178 107.571C123.951 109.88 129.282 110.784 134.549 110.178C137.343 110.003 140.084 109.327 142.639 108.182C142.45 105.89 142.28 103.688 142.091 101.342C133.704 104.632 125.758 105.297 119.322 97.9078Z" fill="#00859B"/>
</g>
<defs>
<clipPath id="clip0_18_9849">
<rect width="385.285" height="302.29" fill="white" transform="translate(0.667419)"/>
</clipPath>
</defs>
</svg>
