<svg width="527" height="56" viewBox="0 0 527 56" fill="none" xmlns="http://www.w3.org/2000/svg">
<path d="M224.357 34.7736H216.896V52.4646H214.397V34.7736H211.195C211.081 38.2518 209.839 41.5986 207.657 44.309C205.531 47.0849 202.639 49.1775 199.337 50.3284L198.524 48.002C201.347 47.0253 203.82 45.2395 205.635 42.8672C207.488 40.5594 208.571 37.7288 208.731 34.7736H199.072V32.3366H214.397V25.3752H216.896V32.3366H224.357V34.7736Z" fill="white"/>
<path d="M252.676 35.9325C250.553 40.7886 247.514 44.5539 243.56 47.2282C239.62 49.8818 235.011 51.2086 229.73 51.2086V48.6036C239.337 48.6036 246.59 43.7121 250.389 34.8401L252.676 35.9325ZM241.415 31.2886H229.872V28.7986H241.415V31.2886Z" fill="white"/>
<path d="M281.065 35.5476C280.712 38.4274 279.748 41.1987 278.239 43.6766C275.32 48.3559 270.813 51.2793 264.763 52.5221L264.268 50.094C267.447 49.5002 270.418 48.0939 272.892 46.0118C275.357 43.901 277.144 41.1104 278.031 37.989H258.337V35.5609L281.065 35.5476ZM279.411 29.7406H260.654V27.2771H279.411V29.7406Z" fill="white"/>
<path d="M310.499 26.397C309.092 30.4438 306.275 33.9157 302.095 36.7418L302.06 52.9335H299.526V38.219C295.545 40.4422 291.124 41.7647 286.576 42.0933L286.399 39.5945C290.961 39.2538 295.376 37.8268 299.274 35.4327C303.741 32.7569 306.664 29.4487 308.035 25.4727L310.499 26.397Z" fill="white"/>
<path d="M339.357 35.9325C337.237 40.7886 334.199 44.5539 330.242 47.2282C326.301 49.8818 321.688 51.2086 316.412 51.2086V48.6036C326.018 48.6036 333.267 43.7121 337.071 34.8401L339.357 35.9325ZM328.097 31.2886H316.553V28.7986H328.097V31.2886Z" fill="white"/>
<path d="M356.607 41.4729L354.568 42.7998L351.822 38.6158V54.7323H349.31V38.4832C348.045 41.6852 346.846 44.361 345.723 46.5414L343.573 45.449C345.591 41.3354 347.364 37.1057 348.881 32.7822H343.821V30.3851H349.274V23.1362H351.809V30.3851H356.231V32.7999H351.809V35.8959L352.512 35.4536L356.607 41.4729ZM374.157 54.4714H371.503V52.26H360.398V54.4714H357.793V24.5825H374.157V54.4714ZM371.503 32.8972V27.0769H360.398V32.884L371.503 32.8972ZM371.503 41.066V35.2811H360.398V41.0528L371.503 41.066ZM371.503 49.9115V43.4455H360.398V49.9204L371.503 49.9115Z" fill="white"/>
<path d="M390.189 31.1988H377.522V28.8193H390.189V31.1988ZM389.172 53.4761H381.074V54.8826H378.54V42.8793H389.154L389.172 53.4761ZM389.203 26.4974H378.893V24.087H389.203V26.4974ZM389.03 40.4689H378.893V38.1469H389.03V40.4689ZM389.101 35.825H378.964V33.503H389.101V35.825ZM386.638 51.0967V45.2764H381.074V51.079L386.638 51.0967ZM408.809 54.9003C404.479 53.4585 401.489 50.8535 399.835 47.156C398.11 51.1365 395.116 53.7371 390.791 55.0064L390.118 52.7022C395.753 51.0436 398.637 46.1875 398.637 40.5219C398.636 39.8763 398.6 39.2311 398.53 38.5892H401.184C401.326 39.8187 401.113 42.8792 401.043 43.7948C402.206 48.1246 405.465 51.1144 409.632 52.5253L408.809 54.9003ZM408.455 39.2747C404.267 37.7621 401.489 35.2633 400.078 31.8135C399.314 33.5711 398.19 35.1486 396.777 36.4438C395.365 37.739 393.696 38.723 391.879 39.3322L391.069 37.0766C396.527 35.107 399.201 30.5678 399.092 23.459H401.595C401.588 25.0856 401.482 26.7103 401.277 28.324C402.263 32.5123 405.257 35.5021 409.3 36.9793L408.455 39.2747ZM395.187 46.0327L392.83 46.2759L392.387 41.7028L394.709 41.4551L395.187 46.0327ZM395.89 26.1303L395.045 31.3713L392.723 30.9865L393.568 25.7234L395.89 26.1303ZM408.88 42.176L404.479 46.068L402.896 44.299L407.318 40.3892L408.88 42.176ZM409.229 27.1829L405.218 30.385L403.74 28.523L407.752 25.321L409.229 27.1829Z" fill="white"/>
<path d="M439.467 36.0549H433.413C433.236 40.4157 432.391 43.83 430.914 46.3289C429.26 49.0754 426.491 51.2204 422.608 52.733L421.657 50.4907C425.036 49.1904 427.407 47.324 428.84 44.9667C430.069 42.888 430.737 39.8982 430.878 36.0637H420.883V43.2064H418.42V36.0549H412.157V33.5914H418.42V26.7273H420.883V33.5914H430.949V26.2673H433.483C433.519 29.3323 433.519 31.7604 433.483 33.5914H439.467V36.0549Z" fill="white"/>
<path d="M467.282 41.1189H443.174V38.6245H467.282V41.1189Z" fill="white"/>
<path d="M495.358 50.8004H480.506C476.809 50.8004 474.416 48.3015 474.416 44.5333V27.3598H476.906V36.1567C483.208 35.5596 488.697 34.1178 493.376 31.7958L494.504 34.047C491.767 35.4008 488.886 36.4395 485.915 37.1429C482.959 37.9045 479.946 38.4222 476.906 38.6909V44.5333C476.906 47.0322 478.104 48.3015 480.497 48.3015H495.349L495.358 50.8004ZM492.894 29.5712H490.395V26.8291H492.894V29.5712ZM497.644 29.5712H495.145V26.8291H497.644V29.5712Z" fill="white"/>
<path d="M526.52 49.8849L524.795 51.7513L515.574 42.9722C512.171 46.8545 507.92 49.9009 503.151 51.8752L502.116 49.5665C506.113 47.8864 509.725 45.4077 512.73 42.2822C515.774 39.1958 518.021 35.4145 519.276 31.2652H503.398V28.6956L522.509 28.7309C521.746 33.1759 519.936 37.3754 517.228 40.9819L526.52 49.8849Z" fill="white"/>
<path d="M75.4131 10.5746H67.3284V9.5176H74.3384V3.28596H67.3107V2.24219H75.4131V10.5746Z" fill="white"/>
<path d="M87.0582 10.5746H78.9734V9.5176H85.9879V3.28596H78.9602V2.24219H87.0582V10.5746Z" fill="white"/>
<path d="M100.039 6.24492H96.1691C96.1123 7.50461 95.6829 8.71908 94.9352 9.73446C94.1888 10.7489 93.131 11.4913 91.9233 11.8485L91.5916 10.8667C92.5944 10.5681 93.4769 9.95963 94.1126 9.12854C94.7231 8.28511 95.0791 7.28442 95.1386 6.24492H90.1277V5.24538H100.039V6.24492ZM99.0793 2.96766H91.052V1.95485H99.0793V2.96766ZM99.0793 1.1278H98.0488V0H99.0793V1.1278ZM101.021 1.1278H99.9904V0H101.021V1.1278Z" fill="white"/>
<path d="M112.082 10.5481L111.37 11.3132L107.575 7.691C106.173 9.28897 104.422 10.5434 102.458 11.3575L102.016 10.4154C103.663 9.72432 105.152 8.7039 106.39 7.41679C107.645 6.14767 108.571 4.59156 109.088 2.88348H102.56V1.82202H110.428C110.114 3.65088 109.369 5.37892 108.256 6.86395L112.082 10.5481Z" fill="white"/>
<path d="M123.258 1.40649C123.277 3.75151 122.554 6.04242 121.193 7.95215C119.8 9.84546 117.72 11.1161 115.399 11.4903L115.213 10.4775C116.535 10.28 117.783 9.74582 118.838 8.92632C119.893 8.10681 120.719 7.02958 121.237 5.79828C121.72 4.74251 122.034 3.61707 122.166 2.46353H117.509C116.859 4.09965 115.86 5.57426 114.581 6.78455L113.887 6.02826C115.207 4.73835 116.204 3.15476 116.797 1.40649H123.258Z" fill="white"/>
<path d="M120.777 25.0282C118.539 22.9539 115.828 21.8261 112.896 21.1406C108.433 20.1013 103.896 20.6143 99.3446 20.4551V52.7411C102.175 52.7411 104.948 52.8074 107.712 52.7411C110.418 52.6822 113.094 52.1617 115.625 51.202C120.074 49.4771 123.223 46.5006 124.581 41.8302C125.215 39.5284 125.414 37.1287 125.169 34.7538C124.833 30.9679 123.595 27.6376 120.777 25.0282ZM120.211 41.9054C118.884 45.4436 116.142 47.4161 112.622 48.451C109.61 49.3356 106.523 49.3842 103.369 49.3046V23.9977C103.431 23.9579 103.462 23.9137 103.498 23.9137C106.757 23.8252 110.008 23.8606 113.17 24.8424C117.765 26.2666 120.468 29.5792 120.954 34.3823C121.215 36.9475 121.14 39.4729 120.211 41.9054Z" fill="white"/>
<path d="M176.875 39.5128L188.459 29.1812H183.288L173.16 38.9732V17.8413H169.374V52.7102H173.182V40.5919L184.35 52.7102H189.577L176.875 39.5128Z" fill="white"/>
<path d="M15.0958 49.3224C11.8362 48.8801 9.02335 47.4914 6.98889 44.851C4.10526 41.1182 3.59665 36.8901 4.83501 32.4673C6.56431 26.3109 12.1502 22.9054 19.1072 23.7457C20.6861 23.9359 22.2031 24.4489 23.8351 24.8292L24.2155 21.3441C24.1306 21.2867 24.0419 21.2349 23.9501 21.1893C23.8086 21.1318 23.6626 21.0788 23.5078 21.0345C19.9795 19.923 16.2149 19.7946 12.619 20.663C7.13042 21.9412 3.15879 25.1344 1.0978 30.4682C-0.0693515 33.6207 -0.311792 37.041 0.399001 40.3265C1.33662 45.2977 4.04777 48.9951 8.65184 51.2242C12.1414 52.9137 15.8653 53.2763 19.6645 52.9933C21.2169 52.8694 22.7604 52.4935 24.3437 52.2193C24.2288 50.7731 24.1314 49.5657 24.0253 48.2786C21.2015 49.4414 18.1116 49.8025 15.0958 49.3224Z" fill="white"/>
<path d="M83.949 28.699C78.9027 28.4026 74.6347 30.8749 72.6003 35.3331C71.4959 37.7943 71.142 40.5265 71.5831 43.1879C72.1492 47.0224 73.989 50.052 77.4741 51.9139C79.9514 53.2078 82.799 53.6077 85.5368 53.0462C88.3294 52.615 90.8365 51.0926 92.5071 48.8136C94.2098 46.5226 94.8644 43.8999 94.913 41.0826C94.8423 40.3352 94.7936 39.5833 94.7052 38.8359C94.0196 33.0686 89.7384 29.0395 83.949 28.699ZM88.9866 47.2745C85.8906 51.4098 79.2123 51.0161 76.7709 46.4519C74.847 42.8517 74.9355 39.1101 76.8196 35.51C78.1154 33.0288 80.3578 31.7949 83.1353 31.8214C84.4888 31.7917 85.8225 32.151 86.978 32.8565C88.1335 33.5621 89.0624 34.5843 89.6544 35.8019C90.4752 37.435 90.8908 39.2417 90.8662 41.0694C90.8087 43.2852 90.3753 45.4214 88.9866 47.2745Z" fill="white"/>
<path d="M38.5717 28.6993C34.8168 28.54 31.5307 29.7121 29.0318 32.6134C26.9885 35.0194 26.1792 37.9074 26.1747 42.0117C26.1984 43.5964 26.5525 45.1587 27.2143 46.5988C27.876 48.0389 28.831 49.3251 30.0181 50.3751C32.6452 52.7324 35.7986 53.5197 39.2616 53.1747C43.0077 52.7944 45.9444 51.0872 47.8816 47.8232C49.5136 45.0855 49.8187 42.0736 49.4738 38.9777C48.8148 33.1353 44.4363 28.9469 38.5717 28.6993ZM44.4141 46.1337C43.0254 48.9598 40.5708 50.2601 37.4616 50.1142C34.1843 49.9417 31.9464 48.1814 30.8717 45.0988C30.5464 43.998 30.3039 42.8745 30.1464 41.7375C30.2481 38.6416 30.7036 36.355 32.2781 34.4311C33.0455 33.5064 34.0304 32.7866 35.1444 32.3361C36.2585 31.8857 37.4669 31.7188 38.6613 31.8503C39.8557 31.9818 40.9989 32.4076 41.9882 33.0896C42.9776 33.7716 43.7823 34.6884 44.3301 35.758C45.1919 37.3486 45.6502 39.1264 45.6648 40.9354C45.6795 42.7444 45.25 44.5293 44.4141 46.1337Z" fill="white"/>
<path d="M139.658 28.7037C134.603 28.3853 130.437 31.0389 128.827 35.6651C127.667 38.9514 127.634 42.5305 128.734 45.8374C129.906 49.4995 132.418 51.7904 136.129 52.7767C138.308 53.3086 140.569 53.4167 142.789 53.0952C144.276 52.9492 145.726 52.5513 147.079 51.9187V48.4601C145.073 49.5142 142.84 50.0623 140.573 50.0567C138.313 50.0921 136.204 49.6145 134.47 48.0798C132.621 46.4301 131.94 44.2718 131.874 41.7641H148.68C148.707 41.397 148.729 41.1139 148.742 40.8265C148.858 38.9238 148.649 37.0153 148.123 35.183C146.885 31.1053 144.085 28.9735 139.658 28.7037ZM132.042 38.8097C132.064 35.5236 134.116 32.3436 137.495 31.7643C139.401 31.437 141.228 31.6227 142.776 32.8965C144.616 34.4091 144.987 36.5187 145.036 38.8097H132.042Z" fill="white"/>
<path d="M163.413 41.2907C162.294 40.5813 161.135 39.9389 159.941 39.3668C158.769 38.752 157.49 38.2965 156.402 37.5446C154.408 36.1514 154.717 33.3784 156.893 32.2683C158.151 31.6879 159.564 31.5327 160.918 31.826C162.099 32.0206 163.244 32.4054 164.456 32.7105C164.554 31.7243 164.655 30.6938 164.775 29.5085C163.594 29.2564 162.448 28.9291 161.276 28.7787C159.149 28.5045 157.026 28.5797 155.036 29.5262C154.029 29.9576 153.159 30.6563 152.521 31.5466C151.882 32.4368 151.499 33.4848 151.414 34.5769C151.139 37.1023 152.05 39.0925 154.249 40.4149C155.133 40.9501 156.08 41.3924 157 41.8789C158.132 42.476 159.291 43.0376 160.392 43.6878C160.782 43.9017 161.121 44.198 161.386 44.5562C161.65 44.9144 161.833 45.3259 161.922 45.762C162.302 47.6638 161.312 49.256 159.326 49.8575C157.451 50.4236 155.598 50.1583 153.78 49.5568C152.895 49.2737 152.073 48.8845 151.157 48.513V52.007C153.189 52.8505 155.37 53.2776 157.57 53.263C159.28 53.2786 160.969 52.8859 162.497 52.1175C166.482 50.0565 167.123 43.8647 163.413 41.2907Z" fill="white"/>
<path d="M58.39 46.9254C55.9707 44.1568 55.6523 39.1104 57.7089 35.9349C60.6102 31.4547 64.8162 31.6581 69.2743 33.0336C69.3672 31.9323 69.4601 30.8222 69.5574 29.7033C69.2301 29.5927 68.947 29.4777 68.6507 29.3981C66.5937 28.8328 64.4419 28.6988 62.3306 29.0045C58.8322 29.5087 55.9928 31.1318 54.1618 34.21C51.9504 37.903 51.8222 41.8393 53.1844 45.8419C53.6071 47.1085 54.2793 48.2777 55.1612 49.2803C56.0431 50.283 57.1169 51.0989 58.3192 51.6799C60.6675 52.816 63.2905 53.2608 65.8821 52.9625C67.257 52.8763 68.6053 52.5437 69.8626 51.9806C69.7697 50.8528 69.6856 49.7693 69.5928 48.6149C65.4663 50.2337 61.5566 50.5609 58.39 46.9254Z" fill="white"/>
</svg>
