<svg id="レイヤー_1" data-name="レイヤー 1" xmlns="http://www.w3.org/2000/svg" viewBox="0 0 1076.55 73.74"><defs><style>.cls-1{fill:#00859b;}</style></defs><path class="cls-1" d="M460.48,33.84H445.32v36h-5.07V33.84h-6.51a32.56,32.56,0,0,1-7.14,19.37,36.35,36.35,0,0,1-17,12.22L408,60.71a31,31,0,0,0,14.44-10.43,28.81,28.81,0,0,0,6.29-16.44H409.08V28.9h31.17V14.75h5.07V28.9h15.16Z"/><path class="cls-1" d="M518,36.19c-4.29,9.87-10.44,17.52-18.52,23s-17.37,8.08-28.09,8.08V61.93c19.52,0,34.24-9.94,42-27.95Zm-22.88-9.43H471.68V21.68h23.44Z"/><path class="cls-1" d="M575.66,35.41a41.62,41.62,0,0,1-5.72,16.51c-5.93,9.51-15.08,15.44-27.38,17.94l-1-4.93a38.12,38.12,0,0,0,17.52-8.29,33.58,33.58,0,0,0,10.43-16.3h-40V35.41Zm-3.36-11.8H534.2v-5h38.1Z"/><path class="cls-1" d="M635.45,16.82c-2.86,8.22-8.58,15.23-17.09,21l-.07,32.88h-5.15V40.84a63.35,63.35,0,0,1-26.3,7.86l-.36-5.07a58.07,58.07,0,0,0,26.16-8.44c9.08-5.43,15-12.15,17.8-20.23Z"/><path class="cls-1" d="M694.06,36.19q-6.43,14.81-18.51,23c-8,5.36-17.37,8.08-28.1,8.08V61.93c19.52,0,34.24-9.94,42-27.95Zm-22.87-9.43H647.74V21.68h23.45Z"/><path class="cls-1" d="M731.41,46.29,727.26,49l-5.58-8.51V73.24h-5.07v-33c-2.58,6.5-5,11.93-7.29,16.37L705,54.37a234.83,234.83,0,0,0,10.79-25.73H705.46V23.78h11.08V9.05h5.14V23.78h8.94v4.86h-8.94v6.29l1.43-.93Zm35.67,26.38h-5.37V68.24H739.13v4.5h-5.29V12h33.24Zm-5.37-43.82V17.06H739.13V28.85Zm0,16.58V33.71H739.13V45.43Zm0,18V50.3H739.13V63.45Z"/><path class="cls-1" d="M799.64,25.42H773.91V20.56h25.73Zm-2.07,45.25H781.13v2.86H776V49.15h21.59Zm.07-54.83H776.69V11h20.95Zm-.36,28.38H776.69V39.5h20.59Zm.15-9.44H776.84V30.07h20.59Zm-5,31V54H781.13v11.8Zm45,7.72c-8.8-2.93-14.87-8.22-18.23-15.73-3.5,8.08-9.58,13.37-18.37,15.94L799.5,69.1c11.44-3.36,17.3-13.23,17.3-24.74a35.56,35.56,0,0,0-.22-3.93h5.36A83.49,83.49,0,0,1,821.66,51c2.36,8.79,9,14.87,17.44,17.73Zm-.72-31.74c-8.51-3.07-14.15-8.15-17-15.16a27.78,27.78,0,0,1-16.66,15.3l-1.64-4.57q16.62-6,16.3-27.67h5.07a79.27,79.27,0,0,1-.64,9.87c2,8.5,8.08,14.58,16.3,17.58Zm-27,13.72L805,56l-.93-9.29,4.72-.5Zm1.43-40.46-1.71,10.66-4.72-.79,1.71-10.65Zm26.38,32.6-8.94,8-3.21-3.58,8.93-7.93Zm.71-30.45-8.14,6.5-3-3.78,8.15-6.51Z"/><path class="cls-1" d="M899.73,35.28H887.44c-.36,8.87-2.08,15.8-5.08,20.88-3.36,5.57-9,9.93-16.87,13l-1.93-4.58c6.86-2.64,11.72-6.43,14.58-11.22,2.5-4.22,3.86-10.29,4.15-18.09H862V49.8h-5V35.28H844.26v-5H857V16.34h5V30.28h20.44V15.41h5.15c.07,6.22.07,11.15,0,14.87h12.15Z"/><path class="cls-1" d="M956.23,45.58h-49V40.5h49Z"/><path class="cls-1" d="M1013.26,65.24H983.09c-7.51,0-12.37-5.08-12.37-12.73V17.63h5.08V35.5c12.79-1.22,23.94-4.15,33.45-8.87l2.29,4.58A82.45,82.45,0,0,1,994.1,37.5a114.48,114.48,0,0,1-18.3,3.15V52.51c0,5.08,2.43,7.65,7.29,7.65h30.17Zm-5-43.11h-5.07V16.56h5.07Zm9.65,0h-5.07V16.56h5.07Z"/><path class="cls-1" d="M1076.55,63.38l-3.5,3.79L1054.32,49.3a68.36,68.36,0,0,1-25.24,18.08l-2.14-4.65a64.57,64.57,0,0,0,21.59-14.79,54.14,54.14,0,0,0,13.29-22.38h-32.24V20.34l38.82.08a57.73,57.73,0,0,1-10.72,24.87Z"/><path class="cls-1" d="M245.3,14.59c-4.55-4.21-10.05-6.5-16-7.89C220.22,4.59,211,5.63,201.76,5.31V70.86c5.76,0,11.39.14,17,0a48.28,48.28,0,0,0,16.06-3.12c9-3.5,15.43-9.56,18.19-19a38.77,38.77,0,0,0,1.2-14.42C253.54,26.66,251,19.89,245.3,14.59Zm-1.15,34.29c-2.74,7.18-8.26,11.19-15.42,13.29-6.12,1.81-12.39,1.9-18.79,1.74V12.51c.12-.09.19-.18.26-.18,6.63-.18,13.22-.1,19.64,1.89,9.35,2.89,14.83,9.62,15.82,19.38C246.19,38.81,246,43.94,244.15,48.88Z"/><path class="cls-1" d="M359.25,44l23.52-21h-10.5L351.7,42.92V0H344V70.84h7.73V46.21c7.65,8.3,15.25,16.55,22.68,24.63H385C376.35,61.8,367.82,52.94,359.25,44Z"/><path class="cls-1" d="M30.64,63.94C24,63,18.31,60.23,14.17,54.86,8.32,47.28,7.29,38.66,9.8,29.68c3.51-12.5,14.86-19.42,29-17.72a93.17,93.17,0,0,1,9.6,2.2c.25-2.22.51-4.69.77-7.07a4.41,4.41,0,0,0-.53-.32,9.37,9.37,0,0,0-.89-.31A41.37,41.37,0,0,0,25.62,5.7C14.46,8.33,6.4,14.81,2.21,25.65a35.82,35.82,0,0,0-1.42,20C2.73,55.76,8.2,63.28,17.55,67.8c7.1,3.44,14.66,4.17,22.37,3.55,3.15-.25,6.26-1,9.5-1.57-.23-2.93-.43-5.41-.64-8A33.71,33.71,0,0,1,30.64,63.94Z"/><path class="cls-1" d="M170.49,22.05c-10.25-.6-18.91,4.42-23.05,13.46a27.92,27.92,0,0,0-2.07,16c1.16,7.79,4.89,13.95,12,17.73a24.68,24.68,0,0,0,16.37,2.3,21.65,21.65,0,0,0,14.16-8.6c3.45-4.65,4.79-10,4.88-15.7-.14-1.52-.24-3-.42-4.56C191,30.93,182.25,22.74,170.49,22.05Zm10.23,37.73c-6.31,8.41-19.84,7.6-24.8-1.67C152,50.8,152.19,43.2,156,35.88c2.64-5,7.15-7.54,12.83-7.49a14.36,14.36,0,0,1,13.24,8,23.1,23.1,0,0,1,2.47,10.7C184.43,51.68,183.55,56,180.72,59.78Z"/><path class="cls-1" d="M78.33,22.06C70.7,21.73,64,24.08,59,30c-4.19,4.9-5.8,10.75-5.8,19.09a23.12,23.12,0,0,0,7.8,17c5.34,4.79,11.74,6.39,18.78,5.68C87.33,71,93.3,67.52,97.24,60.9c3.31-5.56,3.93-11.64,3.23-18C99.14,31.07,90.24,22.56,78.33,22.06ZM90.19,57.47c-2.82,5.74-7.81,8.38-14.12,8-6.65-.35-11.2-3.93-13.38-10.19a47.53,47.53,0,0,1-1.48-6.83c.21-6.25,1.14-10.93,4.34-14.84A14.74,14.74,0,0,1,90,36.32,22.47,22.47,0,0,1,90.19,57.47Z"/><path class="cls-1" d="M283.65,22.06c-10.27-.62-18.73,4.74-22,14.14a31.86,31.86,0,0,0-.19,20.66c2.38,7.44,7.48,12.1,15,14.1a35.84,35.84,0,0,0,13.53.65,27,27,0,0,0,8.72-2.39v-7a28.21,28.21,0,0,1-13.22,3.25c-4.59.08-8.88-.87-12.4-4-3.75-3.36-5.13-7.74-5.27-12.83H302c0-.75.09-1.33.12-1.9a34.41,34.41,0,0,0-1.25-11.47C298.32,26.94,292.64,22.61,283.65,22.06ZM268.18,42.59c0-6.67,4.21-13.13,11.07-14.31,3.88-.66,7.59-.29,10.73,2.3,3.74,3.07,4.48,7.36,4.6,12Z"/><path class="cls-1" d="M331.9,47.62a69.9,69.9,0,0,0-7-3.9c-2.38-1.25-5-2.18-7.16-3.7-4.05-2.83-3.42-8.46,1-10.71a12.9,12.9,0,0,1,8.18-.87c2.4.39,4.73,1.18,7.19,1.82.19-2,.4-4.1.64-6.51-2.39-.51-4.72-1.18-7.1-1.48-4.33-.56-8.63-.41-12.68,1.51A12.2,12.2,0,0,0,307.53,34c-.56,5.14,1.29,9.17,5.76,11.86,1.8,1.09,3.72,2,5.58,3,2.31,1.22,4.65,2.35,6.89,3.68a6.23,6.23,0,0,1,3.12,4.21c.76,3.87-1.25,7.1-5.28,8.32-3.81,1.15-7.58.61-11.26-.61-1.77-.58-3.47-1.37-5.33-2.12v7.1a33.42,33.42,0,0,0,13,2.55,21.84,21.84,0,0,0,10-2.33C338.13,65.45,339.44,52.84,331.9,47.62Z"/><path class="cls-1" d="M118.55,59.07c-4.91-5.62-5.56-15.87-1.38-22.32,5.9-9.1,14.44-8.68,23.49-5.89.19-2.24.38-4.47.57-6.77-.65-.22-1.23-.46-1.83-.62a31.46,31.46,0,0,0-12.84-.8c-7.1,1-12.87,4.33-16.59,10.57-4.46,7.51-4.76,15.5-2,23.64a20.3,20.3,0,0,0,10.43,11.85,27.94,27.94,0,0,0,15.36,2.6,23.06,23.06,0,0,0,8.1-2c-.18-2.29-.36-4.53-.54-6.83C132.94,65.79,125,66.46,118.55,59.07Z"/></svg>