<svg width="322" height="236" viewBox="0 0 322 236" fill="none" xmlns="http://www.w3.org/2000/svg">
<path d="M4.84272 134.039L0.999512 112.204L316.595 56.6084L320.438 78.4165L4.84272 134.039Z" fill="black"/>
<path d="M23.9855 235.635H9.0829V193.708H0.944336V180.482H32.4948V193.663H23.9855V235.635Z" fill="black"/>
<path d="M54.7864 235.638H39.9199V180.53H54.7864V235.638Z" fill="black"/>
<path d="M120.211 235.636H104.676L103.572 210.495L103.129 200.458C102.958 202.382 102.768 204.225 102.56 205.969C102.352 207.712 102.08 209.42 101.773 211.064L97.1068 235.636H84.9803L80.9924 211.028C80.7573 209.6 80.4408 207.152 80.0339 203.665C80.0339 203.141 79.8802 202.075 79.7174 200.449L79.3557 210.63L78.0264 235.636H62.2104L68.6218 180.529H87.1144L90.2161 199.085C90.4784 200.602 90.7135 202.265 90.9034 204.053C91.0933 205.842 91.2922 207.775 91.4641 209.88C91.7211 206.728 92.1497 203.591 92.7481 200.485L96.519 180.511H114.885L120.211 235.636Z" fill="black"/>
<path d="M127.635 235.638V180.53H155.252V193.503H142.492V201.534H153.922V214.01H142.492V222.439H155.252V235.683L127.635 235.638Z" fill="black"/>
<path d="M196.116 235.638H170.108V180.53H184.966V222.43H196.116V235.638Z" fill="black"/>
<path d="M203.549 235.638V180.53H231.157V193.503H218.398V201.534H229.837V214.01H218.398V222.439H231.157V235.683L203.549 235.638Z" fill="black"/>
<path d="M279.401 235.638H264.028L262.925 228.636H252.923L251.712 235.638H236.339L249.56 180.53H267.709L279.401 235.638ZM261.189 216.82L260.23 210.388C260.161 210.072 260.112 209.752 260.085 209.43C260.043 208.9 259.793 206.828 259.335 203.215C259.29 202.808 259.235 202.257 259.163 201.561C259.091 200.866 258.991 199.971 258.874 198.851L258.422 193.639C258.367 194.135 258.304 194.696 258.223 195.31C258.141 195.924 258.051 196.611 257.96 197.343C257.789 198.824 257.68 199.845 257.599 200.414C257.517 200.983 257.481 201.317 257.463 201.444L256.432 208.129L254.931 216.775L261.189 216.82Z" fill="black"/>
<path d="M299.448 235.638H284.591V180.53H298.978C306.152 180.53 311.472 181.997 314.939 184.93C319.02 188.345 321.061 193.127 321.061 199.276C321.061 205.961 318.887 210.948 314.541 214.236C311.575 216.446 307.312 217.555 301.754 217.561H299.43V235.629L299.448 235.638ZM299.448 205.175H300.126C300.921 205.212 301.714 205.085 302.457 204.8C303.199 204.516 303.874 204.08 304.44 203.522C305.546 202.284 306.121 200.662 306.04 199.005C306.114 197.319 305.556 195.667 304.476 194.37C303.99 193.787 303.378 193.321 302.685 193.008C301.993 192.696 301.239 192.543 300.479 192.564H299.448V205.175Z" fill="black"/>
<path d="M74.7427 14.5645L91.6528 0.335938L207.22 138.728L190.301 153.01L74.7427 14.5645Z" fill="black"/>
</svg>
